<svg width="298" height="30" viewBox="0 0 298 30" fill="none" xmlns="http://www.w3.org/2000/svg">
<path d="M280.653 23.2203C278.912 23.2203 277.52 21.7702 277.502 20V7.25047H272.483L271.42 8.34275C271.42 8.34275 269.387 7.25047 267.647 7.25047H243.613C238.374 7.25047 234.143 11.5631 234.143 16.855V20.0188C234.143 21.7891 232.732 23.2203 230.973 23.2203H208.387C207.837 23.2203 207.398 22.7684 207.398 22.2222V7.23164H173.582C168.362 7.23164 164.112 11.5443 164.112 16.8362V22.2034C164.112 22.7495 163.672 23.2015 163.123 23.2015H140.811C139.071 23.2015 137.678 21.7514 137.66 19.9812V7.25047H132.641L131.578 8.34275C131.578 8.34275 129.527 7.25047 127.787 7.25047H103.753C98.514 7.25047 94.2824 11.5631 94.2824 16.855V20.0188C94.2824 21.7891 92.872 23.2203 91.1317 23.2203H65.9807C64.2405 23.2203 62.83 21.7514 62.83 19.9812V12.8249H73.766V7.23164H62.83V0H56.5102V7.23164H52.7916V12.8249H56.5102V19.9812C56.5102 21.7514 55.0997 23.2203 53.3594 23.2203H30.2235C28.4832 23.2203 27.0727 21.7514 27.0727 19.9812V9.62335H20.7529V20.0188C20.7529 21.7891 19.3424 23.2203 17.5838 23.2203H0.23642V29.6045H19.9469C22.1268 29.6045 23.9036 27.8154 23.9036 25.6121C23.9036 27.8154 25.6622 29.6045 27.8421 29.6045H55.7042C57.884 29.6045 59.6609 27.8154 59.6609 25.6121C59.6609 27.8154 61.4195 29.6045 63.6177 29.6045L93.5131 29.6234C95.693 29.6234 97.4698 27.8343 97.4698 25.6309C97.4698 27.8343 99.2284 29.6234 101.408 29.6234H130.553C132.733 29.6234 134.509 27.8343 134.509 25.6309C134.509 27.8343 136.286 29.6234 138.466 29.6234H166.493C168.673 29.6234 170.432 27.8343 170.432 25.6309V16.6667C170.432 14.9906 171.769 13.6347 173.436 13.6347H182.833L182.815 30.0188H189.116V13.6347H199.136C200.217 13.6347 201.115 14.5198 201.115 15.6309V25.6309C201.115 27.8343 202.873 29.6234 205.053 29.6234H233.337C235.516 29.6234 237.293 27.8343 237.293 25.6309C237.293 27.8343 239.052 29.6234 241.232 29.6234H270.376C272.556 29.6234 274.314 27.8343 274.314 25.6309C274.314 27.8343 276.091 29.6234 278.271 29.6234H298V23.2203H280.653ZM131.34 20.1695C131.34 21.8456 130.003 23.2015 128.336 23.2015H103.606C101.94 23.2015 100.602 21.8456 100.602 20.1695V16.6667C100.602 14.9906 101.94 13.6347 103.606 13.6347H128.336C130.003 13.6347 131.34 14.9906 131.34 16.6667V20.1695ZM271.182 20.1695C271.182 21.8456 269.845 23.2015 268.178 23.2015H243.448C241.8 23.2015 240.444 21.8456 240.444 20.1695V16.6667C240.444 14.9906 241.781 13.6347 243.448 13.6347H268.178C269.845 13.6347 271.182 14.9906 271.182 16.6667V20.1695ZM27.0544 1.56309H20.7346V7.23164H27.0544V1.56309Z" fill="black"/>
</svg>
