<svg width="326" height="97" viewBox="0 0 326 97" fill="none" xmlns="http://www.w3.org/2000/svg">
<path d="M9.01437 31.8466C28.2918 21.9128 93.5493 20.9194 122.578 21.6492C142.895 3.80892 279.469 2.34926 279.469 2.34926C279.469 2.34926 297.482 1.84243 239.568 0.869326C183.082 0.747688 154.768 6.89043 119.354 17.8784C28.6385 19.257 0.569031 27.8528 0.569031 27.8528C17.0925 50.3559 41.7757 60.0261 41.7757 60.0261C41.7757 60.0261 27.2718 50.66 9.01437 31.8466Z" fill="#D52148"/>
<path d="M293.626 31.0558L220.474 8.49188L281.366 32.2519L293.626 31.0558Z" fill="#D52148"/>
<path d="M326 57.8163C318.207 44.1117 307.498 39.4489 307.498 39.4489L317.759 39.53L297.665 32.6575L303.499 38.2528C303.499 38.2528 303.316 38.1515 296.054 38.4556C313.393 43.4225 320.37 54.6335 320.37 54.6335L304.683 58.0191C304.683 58.0191 304.785 58.0191 326 57.8163Z" fill="#D52148"/>
<path d="M132.022 41.6385L123.577 37.442H38.165L132.022 41.6385Z" fill="#D52148"/>
<path d="M264.292 37.442H178.859L272.717 41.6385L264.292 37.442Z" fill="#D52148"/>
<path d="M219.067 10.4789L236.753 25.2579L88.0007 29.049L251.624 29.6572L219.067 10.4789Z" fill="#D52148"/>
<path d="M138.856 39.2462L161.969 51.4303H195.342L163.172 48.8353L138.856 39.2462Z" fill="#D52148"/>
<path d="M93.4882 48.8353L69.1721 39.2462L92.2846 51.4303H125.638L93.4882 48.8353Z" fill="#D52148"/>
<path d="M237.773 51.4303H271.146L238.976 48.8353L214.66 39.2462L237.773 51.4303Z" fill="#D52148"/>
<path d="M114.826 62.6211V62.4184V59.4382H109.971V62.4184V62.6211V79.1639L131.227 79.1842V76.4879H114.826V62.6211Z" fill="#D52148"/>
<path d="M213.171 79.2248V68.3989V68.0746V59.5802H208.316V68.0746H190.854V59.5802H186.06V70.406V70.6898V79.2248H190.854V70.6898H208.316V79.2248H213.171Z" fill="#D52148"/>
<path d="M82.8804 59.5802H78.1886L65.5206 79.2248H70.8244L76.0466 70.852H85.1039L90.3262 79.2248H95.63L82.8804 59.5802ZM77.9438 67.7502L80.5345 63.5942L83.1252 67.7502H77.9438Z" fill="#D52148"/>
<path d="M240.221 59.5802L227.553 79.2248H232.856L238.079 70.852H247.136L252.358 79.2248H257.662L244.933 59.5802H240.221ZM239.996 67.7502L242.587 63.5942L245.178 67.7502H239.996Z" fill="#D52148"/>
<path d="M170.904 65.9256C170.904 62.4183 166.559 59.5801 159.337 59.5801L145.608 59.5396V79.5085H151.137V72.2305H159.337C166.477 72.2305 170.904 69.3923 170.904 65.9256ZM159.358 69.5747H151.157V62.2561H159.358C163.642 62.2561 165.926 63.9996 165.926 65.9256C165.906 67.8312 163.601 69.5747 159.358 69.5747Z" fill="#D52148"/>
<path d="M98.1596 93.1928L96.3032 89.6045H95.5893L97.8332 93.8618V96.0108H98.486V93.8618L100.73 89.6045H100.016L98.1596 93.1928Z" fill="#D52148"/>
<path d="M110.624 89.6045L107.829 96.0311H108.522L109.461 93.8821H112.48L113.418 96.0311H114.132L111.358 89.6045H110.624ZM109.706 93.2739L110.97 90.3141L112.194 93.2739H109.706Z" fill="#D52148"/>
<path d="M126.229 95.1999C125.821 95.4026 125.413 95.5242 124.985 95.5242C124.25 95.5242 123.598 95.2607 123.047 94.7133C122.496 94.1862 122.231 93.5375 122.231 92.7874C122.231 92.0778 122.496 91.4696 123.026 90.9222C123.557 90.3749 124.189 90.1113 124.924 90.1113C125.372 90.1113 125.801 90.2127 126.209 90.4154C126.617 90.6181 126.943 90.902 127.167 91.2466H127.881C127.8 91.0236 127.637 90.8006 127.412 90.5573C127.208 90.3546 126.984 90.1721 126.759 90.0302C126.229 89.6653 125.597 89.4828 124.903 89.4828C123.985 89.4828 123.19 89.8072 122.537 90.456C121.884 91.1047 121.558 91.8751 121.558 92.7874C121.558 93.7402 121.884 94.5308 122.537 95.1593C123.19 95.808 123.985 96.1121 124.944 96.1121C125.556 96.1121 126.127 95.95 126.657 95.6256C127.188 95.3012 127.616 94.8755 127.881 94.3281H127.167C126.943 94.693 126.617 94.9769 126.229 95.1999Z" fill="#D52148"/>
<path d="M139.958 92.4225H136.592V89.6045H135.96V96.0108H136.592V93.0104H139.958V96.0108H140.59V89.6045H139.958V92.4225Z" fill="#D52148"/>
<path d="M148.322 90.1721H149.79V96.0108H150.443V90.1721H151.912V89.6045H148.322V90.1721Z" fill="#D52148"/>
<path d="M171.25 93.6388H174.861C174.698 94.1862 174.372 94.6322 173.882 94.9971C173.392 95.3418 172.842 95.5242 172.25 95.5242C171.475 95.5242 170.802 95.2607 170.251 94.7336C169.7 94.2065 169.415 93.5577 169.415 92.7874C169.415 92.4224 169.496 92.0778 169.659 91.7332C169.823 91.3885 170.047 91.0844 170.312 90.8411C170.577 90.5979 170.883 90.4154 171.21 90.2938C171.536 90.1721 171.883 90.1113 172.25 90.1113C172.719 90.1113 173.168 90.2127 173.576 90.4357C174.004 90.6587 174.31 90.9425 174.535 91.3074H175.269C175.188 91.0844 175.045 90.8411 174.8 90.5776C174.616 90.3749 174.392 90.1924 174.147 90.0302C173.596 89.6653 172.964 89.4828 172.25 89.4828C171.781 89.4828 171.332 89.5639 170.924 89.7261C170.496 89.8883 170.129 90.1316 169.802 90.456C169.496 90.7601 169.251 91.1047 169.068 91.5102C168.884 91.9156 168.803 92.3211 168.803 92.7468C168.803 93.6794 169.149 94.47 169.823 95.1188C170.516 95.7675 171.312 96.0919 172.25 96.0919C173.148 96.0919 173.923 95.808 174.616 95.2201C175.33 94.6119 175.677 93.8821 175.677 93.0306H171.291V93.6388H171.25Z" fill="#D52148"/>
<path d="M188.039 91.6926C188.039 91.3074 187.958 90.9628 187.774 90.6587C187.59 90.3546 187.346 90.1113 187.019 89.9288C186.754 89.7869 186.509 89.7058 186.244 89.6653C185.979 89.6248 185.632 89.6248 185.183 89.6248H183.633V96.0513H184.286V90.2127H185.306C185.612 90.2127 185.897 90.2329 186.122 90.2735C186.366 90.314 186.57 90.3951 186.754 90.5168C186.938 90.6384 187.08 90.8209 187.203 91.0236C187.305 91.2263 187.366 91.4493 187.366 91.6723C187.366 91.9764 187.284 92.2197 187.142 92.463C186.999 92.686 186.795 92.8684 186.53 92.9901C186.346 93.0712 186.162 93.1117 185.999 93.132C185.836 93.1523 185.591 93.1523 185.285 93.1523H185.122H184.918L187.121 96.0716H187.937L186.122 93.6794C186.652 93.6794 187.101 93.4969 187.468 93.1117C187.856 92.6657 188.039 92.2197 188.039 91.6926Z" fill="#D52148"/>
<path d="M199.096 89.5031C198.157 89.5031 197.341 89.8275 196.688 90.4762C196.015 91.125 195.689 91.9156 195.689 92.8279C195.689 93.7402 196.036 94.5106 196.709 95.1593C197.382 95.7878 198.178 96.1121 199.096 96.1121C200.034 96.1121 200.83 95.7878 201.503 95.139C202.176 94.4903 202.502 93.6996 202.502 92.7874C202.502 91.8751 202.155 91.1047 201.482 90.4559C200.809 89.8275 200.014 89.5031 199.096 89.5031ZM201.054 94.7133C200.524 95.2404 199.871 95.5039 199.096 95.5039C198.341 95.5039 197.708 95.2404 197.158 94.7133C196.607 94.1862 196.321 93.5577 196.321 92.8279C196.321 92.0778 196.586 91.4291 197.137 90.902C197.668 90.3749 198.32 90.1113 199.096 90.1113C199.85 90.1113 200.483 90.3749 201.034 90.902C201.584 91.4291 201.85 92.0575 201.85 92.7874C201.85 93.5375 201.584 94.1862 201.054 94.7133Z" fill="#D52148"/>
<path d="M214.293 93.4969C214.293 93.801 214.273 94.0646 214.232 94.3078C214.191 94.5309 214.089 94.7538 213.946 94.9363C213.804 95.1188 213.64 95.2607 213.416 95.362C213.212 95.4634 212.988 95.5039 212.743 95.5039C212.478 95.5039 212.253 95.4431 212.029 95.3215C211.804 95.1999 211.621 95.0377 211.498 94.8552C211.376 94.6525 211.294 94.4498 211.254 94.2268C211.213 94.0037 211.192 93.7605 211.192 93.4969V89.6045H210.54V93.4969C210.54 93.8821 210.58 94.2065 210.642 94.5308C210.723 94.8349 210.846 95.1188 211.05 95.362C211.478 95.8689 212.029 96.1324 212.743 96.1324C213.09 96.1324 213.416 96.0716 213.702 95.9297C214.008 95.7878 214.252 95.585 214.456 95.3418C214.66 95.0782 214.783 94.7944 214.864 94.47C214.926 94.2268 214.946 93.9227 214.946 93.5172V89.6248H214.293V93.4969Z" fill="#D52148"/>
<path d="M226.696 89.9491C226.451 89.787 226.206 89.6856 225.941 89.6653C225.696 89.6248 225.37 89.6045 224.962 89.6045H223.269V96.0311H223.922V93.4361H225.145C225.513 93.4361 225.819 93.4158 226.023 93.3753C226.329 93.3145 226.594 93.1928 226.818 93.0306C227.308 92.6657 227.553 92.1792 227.553 91.5507C227.532 90.8209 227.247 90.2938 226.696 89.9491ZM226.737 92.1386C226.635 92.3414 226.492 92.4833 226.308 92.5846L225.819 92.7874C225.635 92.8279 225.37 92.8482 225.003 92.8482H223.901V90.1721H224.737H224.941H225.145C225.329 90.1721 225.513 90.1924 225.635 90.2127L226.063 90.3343C226.594 90.5573 226.859 90.9425 226.859 91.5304C226.879 91.7332 226.839 91.9359 226.737 92.1386Z" fill="#D52148"/>
</svg>
