<svg width="219" height="40" viewBox="0 0 219 40" fill="none" xmlns="http://www.w3.org/2000/svg">
<path d="M5.67763 20.9465C18.658 14.225 62.5773 13.5467 82.0993 14.0606C95.7585 1.9948 187.67 1.00816 187.67 1.00816C187.67 1.00816 199.807 0.658723 160.825 0.000963301C122.83 -0.101812 103.781 4.0503 79.9393 11.4912C18.8843 12.4367 0 18.2538 0 18.2538C11.129 33.4645 27.7299 40.0215 27.7299 40.0215C27.7299 40.0215 17.9791 33.6906 5.67763 20.9465Z" fill="white"/>
<path d="M197.215 20.4111L147.989 5.13875L188.966 21.2127L197.215 20.4111Z" fill="white"/>
<path d="M219 38.5201C213.754 29.2498 206.555 26.0843 206.555 26.0843L213.446 26.1254L199.91 21.48L203.839 25.2621C203.839 25.2621 203.716 25.2004 198.84 25.406C210.525 28.7564 215.215 36.3618 215.215 36.3618L204.662 38.6639C204.662 38.6639 204.724 38.6434 219 38.5201Z" fill="white"/>
<path d="M88.4557 27.5642L82.7781 24.7277H25.3024L88.4557 27.5642Z" fill="white"/>
<path d="M177.467 24.7277H119.971L183.145 27.5642L177.467 24.7277Z" fill="white"/>
<path d="M147.042 6.49539L158.932 16.4851L58.8333 19.0545L168.95 19.4656L147.042 6.49539Z" fill="white"/>
<path d="M93.0637 25.961L108.615 34.2035H131.079L109.438 32.4358L93.0637 25.961Z" fill="white"/>
<path d="M62.5362 32.4358L46.1616 25.961L61.7133 34.2035H84.177L62.5362 32.4358Z" fill="white"/>
<path d="M159.632 34.2035H182.075L160.434 32.4358L144.08 25.961L159.632 34.2035Z" fill="white"/>
</svg>
