<svg width="306" height="27" viewBox="0 0 306 27" fill="none" xmlns="http://www.w3.org/2000/svg">
<path d="M227.971 2.66855L227.916 2.89454C227.843 3.1017 220.149 25.9831 220.149 25.9831H225.938L232.349 6.84934C233.979 6.54802 238.266 5.32392 245.044 5.36158C250.008 5.30509 255.76 6.39736 257.317 6.71751L250.777 25.9831H256.657L264.498 2.76271C258.416 1.0678 252.224 0.22034 245.996 0.22034C239.969 0.182675 233.924 1.0113 227.971 2.66855ZM288.33 0.22034C284.171 0.201508 275.049 0.747647 269.865 2.61205L262.886 23.2524L264.113 23.6855C271.44 26.322 278.181 26.4539 283.457 26.4162C288.256 26.435 293.367 26.1525 298.112 25.1733L299.614 20.8418L302.929 10.8795H282.504L280.764 16.0207H295.455L293.898 20.5782C291.206 20.9548 287.212 21.275 282.101 21.2373C275.598 21.2938 271.44 20.2015 269.663 19.8625L274.06 6.83051C275.708 6.52919 280.178 5.36158 286.956 5.41808C292.744 5.36158 295.272 5.54991 299.632 6.13371C301.427 6.37853 304.157 7.13183 304.157 7.13183L305.86 2.23541L305.384 2.08475C305.347 2.08475 300.2 0.22034 288.769 0.22034H288.33ZM151.62 0.22034C147.444 0.201508 138.34 0.747647 133.137 2.61205L133.082 2.78155C131.965 5.96422 128.576 16.0395 128.576 16.0395H159.167L157.958 19.7872C156.31 20.0885 152.005 21.3315 145.227 21.275C140.703 21.3126 136.984 21.1431 132.514 20.5217C130.609 20.258 127.404 19.4105 127.404 19.4105L125.737 24.3258L126.176 24.4765C126.213 24.4765 132.13 26.548 143.853 26.4915C148.946 26.5104 156.749 25.9831 162.172 24.2128L166.715 10.8983H136.068L137.497 6.79284C139.127 6.49153 143.487 5.41808 150.265 5.47458C156.053 5.41808 158.728 5.62524 162.795 6.17138C164.718 6.43503 167.942 7.26365 167.942 7.26365L169.609 2.36723L169.023 2.19774C168.986 2.19774 163.509 0.258005 152.078 0.258005H151.62V0.22034ZM68.1623 0.22034C62.7767 0.201508 55.5044 0.728815 50.1371 2.44256L49.6792 2.59322L42.6999 23.0264C42.6999 23.0264 43.7807 23.5537 44.4401 23.8173C44.8798 23.9868 45.5576 24.2316 45.5576 24.2316C50.9248 25.9454 58.8566 26.4539 63.2896 26.3974C67.9791 26.4162 73.4929 26.0019 78.1091 25.1733L79.886 19.8437L74.6287 20.5217C74.6287 20.5217 67.741 21.3126 61.9341 21.2561C55.4311 21.3126 51.2179 20.3333 49.441 19.9755L50.7783 16.0207H74.3905L76.1491 10.8795L52.5185 10.8041L53.9107 6.66102C55.5044 6.32204 60.0107 5.38041 66.8068 5.30509C72.5953 5.24859 76.3506 5.62524 79.025 6.03955C81.6995 6.45386 84.2458 7.03767 84.2458 7.03767L85.8578 2.25424L85.3998 2.10358C85.3632 2.10358 80.0325 0.201508 68.6019 0.201508H68.1623V0.22034ZM26.4333 0.239172H26.1402C20.7363 0.239172 13.5738 0.898306 8.27986 2.64972L7.8219 2.81921L0 26.0019H5.64203L9.08587 15.8889L20.9927 16.0207C27.0561 16.0584 34.2735 15.4746 39.7507 13.7043L40.1903 13.5537L43.9089 2.49906L43.5792 2.3484C43.5425 2.3484 38.3218 0.239172 26.8729 0.239172H26.4333ZM10.7345 10.936L12.1084 6.79284C13.7387 6.49153 17.8603 5.43691 24.7846 5.36158C30.2801 5.30509 34.2369 5.70057 36.9296 6.11488L35.8122 9.48588C34.42 9.82486 29.9321 10.8606 21.6156 10.9736C16.23 11.2185 10.7345 10.936 10.7345 10.936ZM91.8112 2.23541L91.3349 2.36723L91.28 2.55556L83.3482 25.9642H89.2466L92.6172 16.0019C113.06 15.8701 114.746 16.2467 116.413 18.5819L113.921 25.9642H119.527L122.329 17.7345C121.597 16.0584 120.021 15.0979 118.739 14.4576C121.468 13.9115 123.685 13.629 123.685 13.629L127.477 2.49906L127.019 2.32957C126.982 2.32957 121.67 0.182675 110.001 0.239172H109.543C103.975 0.239172 97.2517 0.709982 91.8112 2.23541ZM95.7313 6.66102C97.3616 6.3597 102.527 5.49341 108.353 5.39925C113.848 5.34275 117.896 5.68173 120.589 6.07721L119.472 9.44821C117.841 9.74953 113.5 10.8418 106.722 10.8041L94.3574 10.8606L95.7313 6.66102ZM208.718 25.9642H214.544L223.062 0.672317H217.291L208.718 25.9642ZM205.861 0.672317L202.399 10.8795H177.999L181.479 0.672317H175.709L167.136 25.9642H172.888L176.277 16.0207H200.622L197.324 25.9642H203.131L211.668 0.672317H205.861Z" fill="black"/>
</svg>
